<svg width="67" height="95" viewBox="0 0 67 95" fill="none" xmlns="http://www.w3.org/2000/svg">
<path d="M18.5 2H12H8.5L3.5 3.5L14 5.5H18.5L24 8L26.5 10L30.5 16.5L35.5 23.5L37.5 31.5V37.5V43V46.5V51.5V55.5L35.5 61.5L32 66.5L29 71L26.5 74.5L24 79L18.5 84L12 89.5H5.5H1L5.5 91.5M18.5 2H26.5L37.5 3.5L42 5.5L45.5 8L48 10L51.5 12.5L56.5 16.5L59 20.5L60.5 23.5L62.5 28.5L65 34.5V39.5V43V46.5V51.5V55.5L62.5 61.5L60.5 66.5L59 71L56.5 74.5L54 77L51.5 80.5L48 84L45.5 86.5L42 88L37.5 89.5L32 91.5L26.5 93H18.5H14H8.5L5.5 91.5M18.5 2L24 5.5L29 8L33.5 12.5L37.5 16.5V20.5L42 27V31.5L43 34.5V39.5V46.5V51.5V56.5L42 61.5L40 64L37.5 66.5V71L35.5 72.5L33.5 74.5L30.5 77L29 80.5L24 82L21 84L16.5 88L12 91.5H5.5" stroke="black" stroke-width="4"/>
</svg>
